<?xml version="1.0" encoding="UTF-8" standalone="no"?>
<svg
   width="80"
   height="80"
   viewBox="0 0 80 80"
   version="1.1"
   id="svg1"
   xmlns="http://www.w3.org/2000/svg"
   xmlns:svg="http://www.w3.org/2000/svg">
  <defs
     id="defs1" />
  <g
     id="icon"
     transform="translate(0,80) scale(1,-1)">
    <rect
       style="fill:none;fill-opacity:0;stroke:none;stroke-opacity:0.165761"
       id="frame"
       width="79"
       height="79"
       x="0.5"
       y="0.5" />
       <path d="M 70.516 0.784 L 70.515 79.214 L 79.906 79.214 L 79.906 0.786 L 70.516 0.784 Z" id="poly0" style="fill:none;fill-opacity:0;stroke:currentColor;stroke-dasharray:none;stroke-opacity:1" />
<path d="M 56.432 0.784 L 56.431 79.214 L 65.822 79.214 L 65.822 0.786 L 56.432 0.784 Z" id="poly1" style="fill:none;fill-opacity:0;stroke:currentColor;stroke-dasharray:none;stroke-opacity:1" />
<path d="M 42.347 0.784 L 42.347 79.214 L 51.737 79.214 L 51.737 0.786 L 42.347 0.784 Z" id="poly2" style="fill:none;fill-opacity:0;stroke:currentColor;stroke-dasharray:none;stroke-opacity:1" />
<path d="M 28.263 0.784 L 28.263 79.214 L 37.653 79.214 L 37.653 0.786 L 28.263 0.784 Z" id="poly3" style="fill:none;fill-opacity:0;stroke:currentColor;stroke-dasharray:none;stroke-opacity:1" />
<path d="M 14.179 0.784 L 14.178 79.214 L 23.569 79.214 L 23.569 0.786 L 14.179 0.784 Z" id="poly4" style="fill:none;fill-opacity:0;stroke:currentColor;stroke-dasharray:none;stroke-opacity:1" />
<path d="M 0.095 0.784 L 0.094 79.214 L 9.485 79.214 L 9.485 0.786 L 0.095 0.784 Z" id="poly5" style="fill:none;fill-opacity:0;stroke:currentColor;stroke-dasharray:none;stroke-opacity:1" />

  </g>
</svg>