<?xml version="1.0" encoding="UTF-8" standalone="no"?>
<svg
   width="80"
   height="80"
   viewBox="0 0 80 80"
   version="1.1"
   id="svg1"
   xmlns="http://www.w3.org/2000/svg"
   xmlns:svg="http://www.w3.org/2000/svg">
  <defs
     id="defs1" />
  <g
     id="icon"
     transform="translate(0,80) scale(1,-1)">
    <rect
       style="fill:none;fill-opacity:0;stroke:none;stroke-opacity:0.165761"
       id="frame"
       width="79"
       height="79"
       x="0.5"
       y="0.5" />
       <path d="M 3.135 3.086 L 3.133 4.652 L 7.512 4.902 L 13.417 6.076 L 16.758 6.416 L 36.300 6.416 L 39.640 6.076 L 45.546 4.902 L 49.688 4.652 L 64.979 4.784 L 67.725 5.251 L 69.967 6.267 L 72.223 8.276 L 74.175 11.246 L 75.713 15.013 L 76.754 19.370 L 77.248 23.297 L 77.503 28.178 L 77.522 51.001 L 77.311 55.899 L 76.818 60.245 L 76.118 63.589 L 75.002 66.959 L 73.566 69.842 L 72.046 71.929 L 70.163 73.603 L 68.140 74.617 L 66.254 75.077 L 63.693 75.267 L 39.653 75.339 L 35.747 75.011 L 30.562 73.858 L 27.713 73.484 L 15.816 73.412 L 11.997 73.783 L 5.796 75.098 L 1.574 75.348 L 1.569 76.912 L 5.694 76.682 L 12.647 75.249 L 16.936 74.957 L 28.039 75.080 L 35.829 76.595 L 39.210 76.893 L 63.050 76.989 L 66.763 76.712 L 68.735 76.139 L 70.457 75.226 L 71.904 74.035 L 73.253 72.474 L 74.479 70.571 L 75.700 68.020 L 76.587 65.512 L 77.287 62.792 L 78.086 57.409 L 78.417 50.639 L 78.423 29.783 L 78.297 25.553 L 78.000 21.748 L 77.599 18.833 L 77.107 16.412 L 76.472 14.115 L 75.700 11.980 L 74.643 9.728 L 73.617 8.036 L 72.495 6.589 L 71.087 5.238 L 69.602 4.262 L 68.079 3.623 L 64.354 3.035 L 47.558 3.149 L 44.610 3.469 L 38.704 4.643 L 34.562 4.893 L 16.582 4.842 L 13.350 4.492 L 7.565 3.339 L 3.135 3.086 Z" id="poly0" style="fill:none;fill-opacity:0;stroke:currentColor;stroke-dasharray:none;stroke-opacity:1" />
<path d="M 1.575 69.326 L 1.574 70.892 L 5.640 71.121 L 12.435 72.530 L 16.934 72.849 L 28.077 72.726 L 35.604 71.253 L 38.613 70.937 L 60.546 70.741 L 63.169 70.274 L 65.329 69.331 L 66.583 68.432 L 67.968 67.037 L 70.070 63.841 L 71.725 59.783 L 72.357 57.503 L 72.845 55.097 L 73.493 49.253 L 73.682 42.093 L 73.560 32.012 L 73.290 28.219 L 72.914 25.313 L 72.261 22.108 L 71.359 19.132 L 70.226 16.470 L 69.067 14.444 L 67.584 12.526 L 66.170 11.239 L 64.473 10.217 L 62.514 9.551 L 59.674 9.207 L 47.029 9.009 L 38.757 7.554 L 34.564 7.301 L 16.366 7.365 L 13.417 7.684 L 7.512 8.858 L 3.130 9.109 L 3.120 10.652 L 3.372 10.674 L 7.565 10.421 L 13.350 9.267 L 16.582 8.918 L 36.081 8.900 L 39.432 9.222 L 46.997 10.574 L 60.944 10.713 L 62.848 11.062 L 64.709 11.796 L 67.042 13.570 L 68.937 16.065 L 70.511 19.291 L 71.692 23.088 L 72.436 27.298 L 72.810 31.729 L 72.947 37.501 L 72.902 45.810 L 72.645 50.708 L 72.150 54.654 L 71.312 58.349 L 70.253 61.343 L 68.937 63.935 L 67.225 66.238 L 65.511 67.726 L 63.268 68.812 L 61.369 69.236 L 59.015 69.396 L 48.363 69.251 L 37.821 69.420 L 34.973 69.793 L 29.494 70.991 L 25.205 71.283 L 14.460 71.190 L 11.794 70.850 L 6.009 69.600 L 1.575 69.326 Z" id="poly1" style="fill:none;fill-opacity:0;stroke:currentColor;stroke-dasharray:none;stroke-opacity:1" />

  </g>
</svg>