<?xml version="1.0" encoding="UTF-8" standalone="no"?>
<svg
   width="80"
   height="80"
   viewBox="0 0 80 80"
   version="1.1"
   id="svg1"
   xmlns="http://www.w3.org/2000/svg"
   xmlns:svg="http://www.w3.org/2000/svg">
  <defs
     id="defs1" />
  <g
     id="icon"
     transform="translate(0,80) scale(1,-1)">
    <rect
       style="fill:none;fill-opacity:0;stroke:none;stroke-opacity:0.165761"
       id="frame"
       width="79"
       height="79"
       x="0.5"
       y="0.5" />
       <path d="M 75.238 2.805 L 74.204 3.033 L 73.480 3.715 L 72.852 4.982 L 72.321 6.857 L 71.933 9.197 L 71.725 11.596 L 71.627 14.405 L 71.566 21.744 L 71.455 23.914 L 71.274 25.664 L 70.918 27.628 L 70.441 29.166 L 69.897 30.156 L 69.147 30.732 L 68.157 30.856 L 60.873 30.435 L 24.589 30.435 L 17.306 30.856 L 6.380 30.856 L 6.373 32.292 L 17.306 32.314 L 24.589 32.735 L 60.873 32.735 L 69.185 32.182 L 70.016 31.542 L 70.645 30.397 L 71.197 28.611 L 71.611 26.339 L 71.819 24.322 L 71.943 21.920 L 71.999 14.874 L 72.095 11.914 L 72.323 9.455 L 72.680 7.492 L 73.244 5.747 L 73.882 4.759 L 74.743 4.306 L 76.040 4.292 L 76.718 4.533 L 77.180 4.964 L 77.636 5.747 L 78.055 6.927 L 78.396 8.428 L 78.646 10.182 L 78.786 11.914 L 78.870 14.120 L 78.891 30.325 L 78.764 34.781 L 78.508 37.237 L 78.130 39.136 L 77.545 40.786 L 76.907 41.664 L 75.742 42.073 L 68.157 42.076 L 60.873 41.515 L 24.589 41.515 L 17.306 42.076 L 3.532 42.208 L 2.701 42.849 L 1.971 44.252 L 1.364 46.487 L 1.004 48.893 L 0.822 51.266 L 0.736 54.470 L 0.736 64.800 L 0.844 68.405 L 1.106 71.219 L 1.519 73.491 L 2.071 75.277 L 2.701 76.422 L 3.636 77.100 L 5.172 77.167 L 6.005 76.832 L 6.731 75.947 L 7.245 74.746 L 7.600 73.492 L 7.893 72.023 L 8.154 69.990 L 8.356 66.398 L 8.461 57.519 L 8.604 55.398 L 8.829 53.642 L 9.229 51.808 L 9.739 50.434 L 10.285 49.640 L 11.047 49.209 L 17.306 49.144 L 24.589 49.565 L 60.873 49.565 L 68.157 49.144 L 79.084 49.144 L 79.082 47.686 L 68.157 47.686 L 60.873 47.265 L 24.589 47.265 L 17.306 47.686 L 11.024 47.753 L 10.190 48.228 L 9.563 49.140 L 8.973 50.731 L 8.510 52.858 L 8.248 54.891 L 8.087 57.278 L 7.989 65.880 L 7.830 69.141 L 7.627 70.898 L 7.389 72.206 L 6.756 74.253 L 6.118 75.241 L 5.453 75.647 L 3.862 75.694 L 3.001 75.241 L 2.455 74.446 L 1.945 73.073 L 1.546 71.239 L 1.289 69.141 L 1.118 65.126 L 1.107 56.056 L 1.162 52.276 L 1.320 49.788 L 1.665 47.378 L 2.189 45.448 L 2.820 44.234 L 3.666 43.624 L 17.306 43.534 L 24.589 44.095 L 60.873 44.095 L 68.157 43.534 L 75.848 43.526 L 76.989 43.088 L 77.720 42.081 L 78.310 40.489 L 78.774 38.362 L 79.102 35.542 L 79.226 33.140 L 79.269 30.348 L 79.269 15.991 L 79.197 12.397 L 79.035 10.010 L 78.774 7.977 L 78.398 6.171 L 77.929 4.722 L 77.401 3.716 L 76.885 3.167 L 76.260 2.872 L 75.238 2.805 Z" id="poly0" style="fill:none;fill-opacity:0;stroke:currentColor;stroke-dasharray:none;stroke-opacity:1" />
<path d="M 24.589 35.063 L 24.589 39.327 L 75.448 39.299 L 75.440 35.063 L 24.589 35.063 Z" id="poly1" style="fill:none;fill-opacity:0;stroke:currentColor;stroke-dasharray:none;stroke-opacity:1" />

  </g>
</svg>