<?xml version="1.0" encoding="UTF-8" standalone="no"?>
<svg
   width="80"
   height="80"
   viewBox="0 0 80 80"
   version="1.1"
   id="svg1"
   xmlns="http://www.w3.org/2000/svg"
   xmlns:svg="http://www.w3.org/2000/svg">
  <defs
     id="defs1" />
  <g
     id="icon"
     transform="translate(0,80) scale(1,-1)">
    <rect
       style="fill:none;fill-opacity:0;stroke:none;stroke-opacity:0.165761"
       id="frame"
       width="79"
       height="79"
       x="0.5"
       y="0.5" />
       <path d="M 68.538 3.105 L 68.238 3.684 L 71.755 12.465 L 73.321 17.669 L 74.557 22.983 L 75.780 31.099 L 76.235 40.689 L 75.780 48.901 L 74.281 58.355 L 71.755 67.535 L 68.238 76.316 L 68.535 76.895 L 69.109 76.807 L 71.753 70.505 L 73.506 65.296 L 74.929 59.963 L 76.600 50.406 L 77.211 40.695 L 77.080 35.133 L 76.600 29.595 L 74.929 20.037 L 73.506 14.704 L 71.753 9.495 L 69.109 3.193 L 68.538 3.105 Z" id="poly0" style="fill:none;fill-opacity:0;stroke:currentColor;stroke-dasharray:none;stroke-opacity:1" />
<path d="M 67.006 3.897 L 66.696 4.498 L 70.134 13.079 L 71.665 18.169 L 72.875 23.361 L 74.196 32.635 L 74.511 40.670 L 74.068 48.699 L 72.604 57.945 L 70.134 66.921 L 66.696 75.502 L 67.004 76.103 L 67.598 76.015 L 69.709 71.105 L 71.503 66.035 L 72.976 60.845 L 74.759 51.526 L 75.312 46.119 L 75.526 40.683 L 75.398 35.239 L 74.929 29.822 L 73.292 20.472 L 71.902 15.251 L 70.186 10.150 L 67.600 3.988 L 67.006 3.897 Z" id="poly1" style="fill:none;fill-opacity:0;stroke:currentColor;stroke-dasharray:none;stroke-opacity:1" />
<path d="M 65.498 4.732 L 65.166 5.371 L 68.522 13.744 L 70.016 18.703 L 71.193 23.771 L 72.484 32.815 L 72.790 40.652 L 72.216 49.786 L 70.928 57.504 L 68.522 66.256 L 65.167 74.627 L 65.495 75.268 L 66.131 75.176 L 68.192 70.381 L 69.941 65.430 L 71.381 60.357 L 73.122 51.259 L 73.663 45.979 L 73.873 40.664 L 73.434 31.374 L 72.729 26.116 L 71.691 20.925 L 70.332 15.828 L 68.192 9.619 L 66.131 4.824 L 65.498 4.732 Z" id="poly2" style="fill:none;fill-opacity:0;stroke:currentColor;stroke-dasharray:none;stroke-opacity:1" />
<path d="M 63.986 5.502 L 63.657 6.134 L 66.941 14.321 L 68.402 19.175 L 69.553 24.128 L 70.693 31.701 L 71.114 40.639 L 70.554 49.571 L 69.294 57.116 L 66.941 65.679 L 63.658 73.863 L 63.983 74.498 L 64.611 74.406 L 66.627 69.714 L 68.343 64.874 L 69.749 59.913 L 71.451 51.014 L 71.979 45.846 L 72.185 40.652 L 71.758 31.563 L 71.066 26.420 L 70.051 21.341 L 68.343 15.126 L 66.627 10.287 L 64.611 5.594 L 63.986 5.502 Z" id="poly3" style="fill:none;fill-opacity:0;stroke:currentColor;stroke-dasharray:none;stroke-opacity:1" />
<path d="M 62.522 6.303 L 62.176 6.966 L 65.373 14.955 L 66.795 19.687 L 67.919 24.520 L 69.145 33.144 L 69.441 40.624 L 68.892 49.335 L 67.668 56.694 L 65.373 65.045 L 62.177 73.031 L 62.519 73.697 L 63.181 73.599 L 65.143 69.018 L 66.818 64.290 L 68.188 59.444 L 69.253 54.506 L 70.007 49.499 L 70.562 40.636 L 70.442 35.558 L 70.007 30.502 L 68.480 21.782 L 66.818 15.710 L 65.144 10.982 L 63.181 6.401 L 62.522 6.303 Z" id="poly4" style="fill:none;fill-opacity:0;stroke:currentColor;stroke-dasharray:none;stroke-opacity:1" />
<path d="M 61.021 7.129 L 60.682 7.786 L 62.571 12.193 L 64.177 16.721 L 66.287 24.905 L 67.372 32.105 L 67.773 40.608 L 67.241 49.103 L 66.042 56.281 L 63.800 64.421 L 60.682 72.211 L 61.019 72.871 L 61.675 72.773 L 63.593 68.304 L 65.228 63.697 L 66.567 58.970 L 68.191 50.493 L 68.693 45.569 L 68.889 40.621 L 68.481 31.967 L 67.823 27.063 L 66.857 22.226 L 65.228 16.303 L 63.593 11.696 L 61.675 7.227 L 61.021 7.129 Z" id="poly5" style="fill:none;fill-opacity:0;stroke:currentColor;stroke-dasharray:none;stroke-opacity:1" />
<path d="M 59.546 7.946 L 59.203 8.603 L 61.043 12.898 L 62.604 17.311 L 64.658 25.290 L 65.712 32.303 L 66.102 40.593 L 65.584 48.870 L 64.419 55.868 L 62.239 63.800 L 59.204 71.394 L 59.543 72.055 L 60.196 71.957 L 62.064 67.599 L 63.655 63.102 L 64.961 58.497 L 66.537 50.229 L 67.028 45.430 L 67.218 40.605 L 66.822 32.166 L 66.180 27.385 L 65.240 22.670 L 63.655 16.899 L 62.064 12.401 L 60.196 8.043 L 59.546 7.946 Z" id="poly6" style="fill:none;fill-opacity:0;stroke:currentColor;stroke-dasharray:none;stroke-opacity:1" />
<path d="M 58.057 8.765 L 57.717 9.416 L 60.674 16.814 L 61.990 21.196 L 63.030 25.672 L 64.058 32.505 L 64.437 40.577 L 64.058 47.495 L 62.798 55.455 L 60.674 63.186 L 57.718 70.581 L 58.054 71.235 L 58.704 71.137 L 60.095 67.966 L 61.714 63.617 L 63.346 58.022 L 64.331 53.447 L 65.028 48.804 L 65.547 40.590 L 65.433 35.881 L 65.028 31.197 L 63.619 23.114 L 62.074 17.489 L 60.522 13.109 L 58.704 8.863 L 58.057 8.765 Z" id="poly7" style="fill:none;fill-opacity:0;stroke:currentColor;stroke-dasharray:none;stroke-opacity:1" />
<path d="M 56.553 9.631 L 56.214 10.286 L 57.958 14.348 L 59.438 18.525 L 61.384 26.075 L 62.494 33.834 L 62.756 40.562 L 62.265 48.398 L 61.158 55.020 L 59.093 62.530 L 56.214 69.714 L 56.550 70.369 L 57.201 70.274 L 58.556 67.190 L 60.132 62.962 L 61.723 57.523 L 63.221 49.691 L 63.684 45.144 L 63.866 40.574 L 63.760 35.996 L 63.363 31.439 L 61.990 23.583 L 60.484 18.113 L 58.974 13.851 L 57.201 9.726 L 56.553 9.631 Z" id="poly8" style="fill:none;fill-opacity:0;stroke:currentColor;stroke-dasharray:none;stroke-opacity:1" />
<path d="M 55.055 10.485 L 54.721 11.130 L 57.522 18.109 L 59.747 26.470 L 60.823 34.011 L 61.079 40.543 L 60.720 47.076 L 59.747 53.530 L 57.522 61.891 L 54.721 68.870 L 55.053 69.515 L 55.698 69.423 L 57.013 66.426 L 58.545 62.316 L 60.088 57.029 L 61.545 49.421 L 62.173 40.556 L 61.807 32.787 L 61.216 28.389 L 60.348 24.042 L 59.212 19.780 L 57.421 14.590 L 55.698 10.577 L 55.055 10.485 Z" id="poly9" style="fill:none;fill-opacity:0;stroke:currentColor;stroke-dasharray:none;stroke-opacity:1" />
<path d="M 53.550 11.296 L 53.232 11.909 L 55.949 18.702 L 58.115 26.836 L 59.057 33.117 L 59.406 40.531 L 59.057 46.883 L 58.115 53.164 L 55.949 61.298 L 53.232 68.091 L 53.547 68.704 L 54.158 68.613 L 55.438 65.699 L 56.922 61.704 L 58.423 56.560 L 59.838 49.161 L 60.449 40.543 L 59.972 31.911 L 58.677 24.483 L 57.572 20.336 L 55.834 15.292 L 54.158 11.387 L 53.550 11.296 Z" id="poly10" style="fill:none;fill-opacity:0;stroke:currentColor;stroke-dasharray:none;stroke-opacity:1" />
<path d="M 52.013 12.115 L 51.687 12.735 L 54.641 20.301 L 56.425 27.227 L 57.440 34.343 L 57.680 40.515 L 57.231 47.705 L 56.219 53.778 L 54.323 60.668 L 51.687 67.265 L 52.010 67.885 L 52.630 67.793 L 53.867 64.960 L 55.636 60.093 L 56.772 56.085 L 58.142 48.897 L 58.734 40.528 L 58.391 33.187 L 57.012 24.927 L 55.943 20.898 L 54.252 15.997 L 52.630 12.207 L 52.013 12.115 Z" id="poly11" style="fill:none;fill-opacity:0;stroke:currentColor;stroke-dasharray:none;stroke-opacity:1" />
<path d="M 50.504 12.947 L 50.181 13.574 L 52.739 19.966 L 54.780 27.618 L 55.764 34.517 L 55.998 40.500 L 55.560 47.466 L 54.579 53.356 L 52.739 60.034 L 50.181 66.426 L 50.501 67.053 L 51.122 66.963 L 52.331 64.215 L 53.734 60.447 L 55.149 55.604 L 56.483 48.633 L 57.058 40.506 L 56.723 33.392 L 55.386 25.380 L 54.345 21.472 L 52.702 16.716 L 51.124 13.039 L 50.504 12.947 Z" id="poly12" style="fill:none;fill-opacity:0;stroke:currentColor;stroke-dasharray:none;stroke-opacity:1" />
<path d="M 48.967 13.718 L 48.622 14.387 L 51.403 21.490 L 53.081 28.000 L 53.942 33.722 L 54.263 40.484 L 53.942 46.278 L 53.081 52.000 L 51.403 58.510 L 48.622 65.613 L 48.964 66.283 L 49.630 66.187 L 50.802 63.517 L 52.167 59.863 L 53.540 55.157 L 54.963 47.403 L 55.395 40.497 L 54.963 32.597 L 53.771 25.800 L 52.761 22.006 L 51.165 17.387 L 49.632 13.815 L 48.967 13.718 Z" id="poly13" style="fill:none;fill-opacity:0;stroke:currentColor;stroke-dasharray:none;stroke-opacity:1" />
<path d="M 47.475 14.509 L 47.091 15.256 L 49.777 22.117 L 51.399 28.407 L 52.322 34.868 L 52.539 40.469 L 52.233 46.066 L 51.399 51.593 L 49.777 57.883 L 47.091 64.744 L 47.472 65.491 L 48.216 65.386 L 49.352 62.800 L 50.675 59.251 L 52.008 54.692 L 53.384 47.177 L 53.806 40.481 L 53.384 32.824 L 52.009 25.309 L 50.675 20.749 L 49.352 17.200 L 48.216 14.614 L 47.475 14.509 Z" id="poly14" style="fill:none;fill-opacity:0;stroke:currentColor;stroke-dasharray:none;stroke-opacity:1" />
<path d="M 45.958 15.301 L 45.540 16.113 L 48.134 22.738 L 49.701 28.807 L 50.504 34.148 L 50.799 40.450 L 50.504 45.852 L 49.701 51.193 L 48.134 57.262 L 45.540 63.887 L 45.955 64.699 L 46.760 64.591 L 47.145 63.757 L 48.845 59.513 L 50.207 55.123 L 51.652 47.869 L 52.177 40.463 L 51.769 33.050 L 50.436 25.769 L 49.146 21.354 L 47.514 17.079 L 46.764 15.413 L 45.958 15.301 Z" id="poly15" style="fill:none;fill-opacity:0;stroke:currentColor;stroke-dasharray:none;stroke-opacity:1" />
<path d="M 44.480 16.111 L 44.045 16.958 L 46.547 23.350 L 48.223 30.055 L 48.917 35.221 L 49.120 40.434 L 48.836 45.647 L 48.058 50.795 L 46.547 56.650 L 44.045 63.042 L 44.477 63.889 L 45.315 63.778 L 45.689 62.968 L 47.333 58.868 L 48.650 54.620 L 50.046 47.609 L 50.554 40.447 L 50.160 33.277 L 48.871 26.243 L 47.621 21.972 L 46.044 17.836 L 45.319 16.226 L 44.480 16.111 Z" id="poly16" style="fill:none;fill-opacity:0;stroke:currentColor;stroke-dasharray:none;stroke-opacity:1" />
<path d="M 42.979 16.934 L 42.531 17.802 L 44.944 23.961 L 46.552 30.421 L 47.221 35.392 L 47.419 40.419 L 47.146 45.439 L 46.396 50.401 L 44.944 56.039 L 42.531 62.198 L 42.976 63.066 L 43.840 62.952 L 44.200 62.174 L 45.788 58.212 L 47.058 54.117 L 48.409 47.347 L 48.897 40.432 L 48.517 33.513 L 47.275 26.718 L 46.067 22.595 L 44.543 18.603 L 43.844 17.052 L 42.979 16.934 Z" id="poly17" style="fill:none;fill-opacity:0;stroke:currentColor;stroke-dasharray:none;stroke-opacity:1" />
<path d="M 41.476 17.745 L 41.033 18.604 L 43.354 24.539 L 44.904 30.766 L 45.550 35.560 L 45.740 40.403 L 45.472 45.241 L 44.753 50.025 L 43.106 56.221 L 41.033 61.396 L 41.473 62.256 L 42.325 62.145 L 42.674 61.391 L 44.201 57.570 L 45.424 53.614 L 46.727 47.090 L 47.196 40.416 L 46.830 33.743 L 45.630 27.187 L 44.201 22.431 L 42.675 18.609 L 42.325 17.855 L 41.476 17.745 Z" id="poly18" style="fill:none;fill-opacity:0;stroke:currentColor;stroke-dasharray:none;stroke-opacity:1" />
<path d="M 40.014 18.546 L 39.594 19.358 L 41.831 25.088 L 43.328 31.095 L 43.949 35.718 L 44.131 40.391 L 43.877 45.057 L 43.183 49.671 L 41.592 55.647 L 39.594 60.642 L 40.012 61.455 L 40.819 61.347 L 41.154 60.621 L 42.628 56.939 L 43.806 53.127 L 45.059 46.832 L 45.514 40.404 L 45.162 33.967 L 44.007 27.646 L 42.888 23.816 L 41.473 20.100 L 40.823 18.657 L 40.014 18.546 Z" id="poly19" style="fill:none;fill-opacity:0;stroke:currentColor;stroke-dasharray:none;stroke-opacity:1" />
<path d="M 38.648 19.269 L 38.266 20.004 L 40.203 24.844 L 41.744 30.633 L 42.485 35.855 L 42.661 40.379 L 42.413 44.899 L 41.744 49.367 L 40.203 55.156 L 38.266 59.996 L 38.645 60.731 L 39.369 60.632 L 39.693 59.928 L 41.119 56.374 L 42.258 52.683 L 43.469 46.603 L 43.910 40.391 L 43.567 34.168 L 42.451 28.063 L 41.370 24.356 L 40.003 20.770 L 39.373 19.372 L 38.648 19.269 Z" id="poly20" style="fill:none;fill-opacity:0;stroke:currentColor;stroke-dasharray:none;stroke-opacity:1" />
<path d="M 37.295 20.033 L 36.900 20.805 L 38.984 26.129 L 40.380 31.716 L 40.957 36.020 L 41.127 40.363 L 40.887 44.703 L 40.243 48.991 L 38.984 53.871 L 36.900 59.195 L 37.292 59.967 L 38.058 59.869 L 38.374 59.193 L 39.747 55.765 L 40.847 52.217 L 42.016 46.357 L 42.438 40.376 L 42.108 34.389 L 41.034 28.507 L 39.990 24.936 L 38.374 20.808 L 38.058 20.131 L 37.295 20.033 Z" id="poly21" style="fill:none;fill-opacity:0;stroke:currentColor;stroke-dasharray:none;stroke-opacity:1" />
<path d="M 35.717 20.955 L 35.190 21.982 L 37.146 26.982 L 38.455 32.229 L 38.996 36.262 L 39.158 40.338 L 38.857 45.088 L 38.040 49.763 L 36.716 54.293 L 35.189 58.021 L 35.714 59.045 L 36.746 58.901 L 39.201 52.314 L 40.502 46.053 L 40.904 40.357 L 40.502 33.947 L 39.391 28.372 L 38.101 24.334 L 36.748 21.102 L 35.717 20.955 Z" id="poly22" style="fill:none;fill-opacity:0;stroke:currentColor;stroke-dasharray:none;stroke-opacity:1" />
<path d="M 34.135 21.775 L 33.712 22.596 L 35.601 27.426 L 36.860 32.489 L 37.384 36.389 L 37.540 40.329 L 37.323 44.266 L 36.860 47.511 L 35.601 52.574 L 33.712 57.404 L 34.132 58.226 L 34.957 58.103 L 36.252 55.008 L 37.483 51.140 L 38.547 45.795 L 38.935 40.342 L 38.633 34.882 L 37.483 28.860 L 36.252 24.992 L 34.957 21.897 L 34.135 21.775 Z" id="poly23" style="fill:none;fill-opacity:0;stroke:currentColor;stroke-dasharray:none;stroke-opacity:1" />
<path d="M 33.515 22.701 L 2.805 39.196 L 2.793 40.791 L 33.504 57.312 L 35.184 53.120 L 36.387 48.748 L 37.030 44.891 L 37.317 40.326 L 37.099 35.758 L 36.387 31.252 L 35.184 26.880 L 33.515 22.701 Z" id="poly24" style="fill:none;fill-opacity:0;stroke:currentColor;stroke-dasharray:none;stroke-opacity:1" />

  </g>
</svg>