<?xml version="1.0" encoding="UTF-8" standalone="no"?>
<svg
   width="80"
   height="80"
   viewBox="0 0 80 80"
   version="1.1"
   id="svg1"
   xmlns="http://www.w3.org/2000/svg"
   xmlns:svg="http://www.w3.org/2000/svg">
  <defs
     id="defs1" />
  <g
     id="icon"
     transform="translate(0,80) scale(1,-1)">
    <rect
       style="fill:none;fill-opacity:0;stroke:none;stroke-opacity:0.165761"
       id="frame"
       width="79"
       height="79"
       x="0.5"
       y="0.5" />
       <path d="M 38.387 1.740 L 36.219 9.770 L 34.255 10.081 L 29.715 3.113 L 26.631 4.123 L 27.063 12.418 L 25.290 13.321 L 18.829 8.096 L 16.204 9.995 L 19.172 17.767 L 17.767 19.172 L 9.995 16.204 L 8.097 18.832 L 13.321 25.290 L 12.418 27.063 L 4.113 26.638 L 3.117 29.727 L 10.081 34.255 L 9.770 36.219 L 1.745 38.375 L 1.740 41.613 L 9.770 43.781 L 10.081 45.745 L 3.113 50.285 L 4.123 53.369 L 12.418 52.937 L 13.321 54.710 L 8.096 61.171 L 9.995 63.796 L 17.767 60.828 L 19.172 62.233 L 16.204 70.005 L 18.832 71.903 L 25.290 66.679 L 27.063 67.582 L 26.638 75.887 L 29.727 76.883 L 34.255 69.919 L 36.219 70.230 L 38.375 78.255 L 41.613 78.260 L 43.781 70.230 L 45.745 69.919 L 50.285 76.887 L 53.369 75.877 L 52.937 67.582 L 54.710 66.679 L 61.171 71.904 L 63.796 70.005 L 60.828 62.233 L 62.233 60.828 L 70.005 63.796 L 71.903 61.168 L 66.679 54.710 L 67.582 52.937 L 75.887 53.362 L 76.883 50.273 L 69.919 45.745 L 70.230 43.781 L 78.255 41.625 L 78.260 38.387 L 70.230 36.219 L 69.919 34.255 L 76.887 29.715 L 75.877 26.631 L 67.582 27.063 L 66.679 25.290 L 71.904 18.829 L 70.005 16.204 L 62.233 19.172 L 60.828 17.767 L 63.796 9.995 L 61.168 8.097 L 54.710 13.321 L 52.937 12.418 L 53.362 4.113 L 50.273 3.117 L 45.745 10.081 L 43.781 9.770 L 41.625 1.745 L 38.387 1.740 Z" id="poly0" style="fill:none;fill-opacity:0;stroke:currentColor;stroke-dasharray:none;stroke-opacity:1" />

  </g>
</svg>