<?xml version="1.0" encoding="UTF-8" standalone="no"?>
<svg
   width="80"
   height="80"
   viewBox="0 0 80 80"
   version="1.1"
   id="svg1"
   xmlns="http://www.w3.org/2000/svg"
   xmlns:svg="http://www.w3.org/2000/svg">
  <defs
     id="defs1" />
  <g
     id="icon"
     transform="translate(0,80) scale(1,-1)">
    <rect
       style="fill:none;fill-opacity:0;stroke:none;stroke-opacity:0.165761"
       id="frame"
       width="79"
       height="79"
       x="0.5"
       y="0.5" />
       <path d="M 8.024 54.997 L 8.024 55.007 L 79.287 55.004 L 79.280 55.000 L 8.024 54.997 Z" id="poly0" style="fill:none;fill-opacity:0;stroke:currentColor;stroke-dasharray:none;stroke-opacity:1" />
<path d="M 8.024 31.917 L 8.024 31.927 L 79.287 31.924 L 79.280 31.920 L 8.024 31.917 Z" id="poly1" style="fill:none;fill-opacity:0;stroke:currentColor;stroke-dasharray:none;stroke-opacity:1" />
<path d="M 8.024 34.225 L 8.024 34.235 L 79.287 34.232 L 79.280 34.228 L 8.024 34.225 Z" id="poly2" style="fill:none;fill-opacity:0;stroke:currentColor;stroke-dasharray:none;stroke-opacity:1" />
<path d="M 8.024 36.533 L 8.024 36.543 L 79.287 36.540 L 79.280 36.536 L 8.024 36.533 Z" id="poly3" style="fill:none;fill-opacity:0;stroke:currentColor;stroke-dasharray:none;stroke-opacity:1" />
<path d="M 8.024 38.841 L 8.024 38.851 L 79.287 38.848 L 79.280 38.844 L 8.024 38.841 Z" id="poly4" style="fill:none;fill-opacity:0;stroke:currentColor;stroke-dasharray:none;stroke-opacity:1" />
<path d="M 8.024 41.149 L 8.024 41.159 L 79.287 41.156 L 79.280 41.152 L 8.024 41.149 Z" id="poly5" style="fill:none;fill-opacity:0;stroke:currentColor;stroke-dasharray:none;stroke-opacity:1" />
<path d="M 8.024 43.457 L 8.024 43.467 L 79.287 43.464 L 79.280 43.460 L 8.024 43.457 Z" id="poly6" style="fill:none;fill-opacity:0;stroke:currentColor;stroke-dasharray:none;stroke-opacity:1" />
<path d="M 8.024 45.765 L 8.024 45.775 L 79.287 45.772 L 79.280 45.768 L 8.024 45.765 Z" id="poly7" style="fill:none;fill-opacity:0;stroke:currentColor;stroke-dasharray:none;stroke-opacity:1" />
<path d="M 8.024 48.073 L 8.024 48.083 L 79.287 48.080 L 79.280 48.076 L 8.024 48.073 Z" id="poly8" style="fill:none;fill-opacity:0;stroke:currentColor;stroke-dasharray:none;stroke-opacity:1" />
<path d="M 8.024 50.381 L 8.024 50.391 L 79.287 50.388 L 79.280 50.384 L 8.024 50.381 Z" id="poly9" style="fill:none;fill-opacity:0;stroke:currentColor;stroke-dasharray:none;stroke-opacity:1" />
<path d="M 8.024 52.689 L 8.024 52.699 L 79.287 52.696 L 79.280 52.692 L 8.024 52.689 Z" id="poly10" style="fill:none;fill-opacity:0;stroke:currentColor;stroke-dasharray:none;stroke-opacity:1" />
<path d="M 0.713 73.648 L 0.718 75.616 L 0.826 75.654 L 1.096 75.684 L 1.320 75.699 L 1.610 75.712 L 2.297 75.735 L 2.748 75.746 L 3.246 75.755 L 3.781 75.763 L 4.348 75.769 L 5.631 75.776 L 7.131 75.779 L 79.285 75.776 L 79.280 75.772 L 7.040 75.770 L 5.588 75.767 L 4.380 75.759 L 3.365 75.746 L 2.499 75.727 L 1.877 75.705 L 1.448 75.681 L 1.193 75.652 L 1.089 75.615 L 1.083 73.641 L 1.129 73.603 L 1.318 73.572 L 1.657 73.546 L 2.194 73.523 L 2.910 73.504 L 3.858 73.488 L 4.835 73.478 L 6.067 73.473 L 7.728 73.471 L 79.280 73.468 L 79.285 73.465 L 8.024 73.462 L 6.132 73.463 L 4.737 73.469 L 3.689 73.480 L 2.670 73.497 L 1.898 73.518 L 1.320 73.542 L 0.934 73.572 L 0.752 73.605 L 0.713 73.648 Z" id="poly11" style="fill:none;fill-opacity:0;stroke:currentColor;stroke-dasharray:none;stroke-opacity:1" />
<path d="M 8.024 57.306 L 8.024 57.315 L 79.287 57.312 L 79.280 57.308 L 8.024 57.306 Z" id="poly12" style="fill:none;fill-opacity:0;stroke:currentColor;stroke-dasharray:none;stroke-opacity:1" />
<path d="M 8.024 59.614 L 8.024 59.623 L 79.287 59.620 L 79.280 59.616 L 8.024 59.614 Z" id="poly13" style="fill:none;fill-opacity:0;stroke:currentColor;stroke-dasharray:none;stroke-opacity:1" />
<path d="M 8.024 61.922 L 8.024 61.931 L 79.287 61.928 L 79.280 61.924 L 8.024 61.922 Z" id="poly14" style="fill:none;fill-opacity:0;stroke:currentColor;stroke-dasharray:none;stroke-opacity:1" />
<path d="M 8.024 64.230 L 8.024 64.239 L 79.287 64.236 L 79.280 64.232 L 8.024 64.230 Z" id="poly15" style="fill:none;fill-opacity:0;stroke:currentColor;stroke-dasharray:none;stroke-opacity:1" />
<path d="M 8.024 66.538 L 8.024 66.547 L 79.287 66.544 L 79.280 66.540 L 8.024 66.538 Z" id="poly16" style="fill:none;fill-opacity:0;stroke:currentColor;stroke-dasharray:none;stroke-opacity:1" />
<path d="M 8.024 68.846 L 8.024 68.855 L 79.287 68.852 L 79.280 68.848 L 8.024 68.846 Z" id="poly17" style="fill:none;fill-opacity:0;stroke:currentColor;stroke-dasharray:none;stroke-opacity:1" />
<path d="M 8.024 71.154 L 8.024 71.163 L 79.287 71.160 L 79.280 71.156 L 8.024 71.154 Z" id="poly18" style="fill:none;fill-opacity:0;stroke:currentColor;stroke-dasharray:none;stroke-opacity:1" />
<path d="M 77.855 0.018 L 77.848 1.018 L 79.280 1.018 L 79.287 0.018 L 77.855 0.018 Z" id="poly19" style="fill:none;fill-opacity:0;stroke:currentColor;stroke-dasharray:none;stroke-opacity:1" />
<path d="M 77.855 78.942 L 77.848 79.942 L 79.280 79.942 L 79.287 78.942 L 77.855 78.942 Z" id="poly20" style="fill:none;fill-opacity:0;stroke:currentColor;stroke-dasharray:none;stroke-opacity:1" />
<path d="M 8.024 27.301 L 8.024 27.311 L 79.287 27.308 L 79.280 27.304 L 8.024 27.301 Z" id="poly21" style="fill:none;fill-opacity:0;stroke:currentColor;stroke-dasharray:none;stroke-opacity:1" />
<path d="M 0.713 4.407 L 0.718 6.375 L 0.826 6.413 L 1.096 6.443 L 1.320 6.458 L 1.610 6.471 L 2.297 6.494 L 2.748 6.505 L 3.246 6.514 L 3.781 6.522 L 4.348 6.528 L 5.631 6.535 L 7.131 6.538 L 79.285 6.535 L 79.280 6.532 L 7.040 6.529 L 5.588 6.526 L 4.380 6.518 L 3.365 6.505 L 2.499 6.486 L 1.877 6.464 L 1.448 6.440 L 1.193 6.411 L 1.089 6.374 L 1.083 4.400 L 1.129 4.362 L 1.318 4.331 L 1.657 4.305 L 2.194 4.283 L 2.910 4.263 L 3.858 4.247 L 4.835 4.237 L 6.067 4.232 L 7.728 4.230 L 79.280 4.228 L 79.285 4.224 L 8.024 4.221 L 6.132 4.222 L 4.737 4.228 L 3.689 4.239 L 2.670 4.256 L 1.898 4.277 L 1.320 4.301 L 0.934 4.331 L 0.752 4.364 L 0.713 4.407 Z" id="poly22" style="fill:none;fill-opacity:0;stroke:currentColor;stroke-dasharray:none;stroke-opacity:1" />
<path d="M 8.024 8.837 L 8.024 8.846 L 79.287 8.843 L 79.280 8.840 L 8.024 8.837 Z" id="poly23" style="fill:none;fill-opacity:0;stroke:currentColor;stroke-dasharray:none;stroke-opacity:1" />
<path d="M 8.024 11.145 L 8.024 11.154 L 79.287 11.151 L 79.280 11.148 L 8.024 11.145 Z" id="poly24" style="fill:none;fill-opacity:0;stroke:currentColor;stroke-dasharray:none;stroke-opacity:1" />
<path d="M 8.024 13.453 L 8.024 13.462 L 79.287 13.459 L 79.280 13.456 L 8.024 13.453 Z" id="poly25" style="fill:none;fill-opacity:0;stroke:currentColor;stroke-dasharray:none;stroke-opacity:1" />
<path d="M 8.024 15.761 L 8.024 15.770 L 79.287 15.767 L 79.280 15.764 L 8.024 15.761 Z" id="poly26" style="fill:none;fill-opacity:0;stroke:currentColor;stroke-dasharray:none;stroke-opacity:1" />
<path d="M 8.024 20.377 L 8.024 20.386 L 79.287 20.384 L 79.280 20.380 L 8.024 20.377 Z" id="poly27" style="fill:none;fill-opacity:0;stroke:currentColor;stroke-dasharray:none;stroke-opacity:1" />
<path d="M 8.024 29.609 L 8.024 29.619 L 79.287 29.616 L 79.280 29.612 L 8.024 29.609 Z" id="poly28" style="fill:none;fill-opacity:0;stroke:currentColor;stroke-dasharray:none;stroke-opacity:1" />
<path d="M 8.024 24.993 L 8.024 25.003 L 79.287 25.000 L 79.280 24.996 L 8.024 24.993 Z" id="poly29" style="fill:none;fill-opacity:0;stroke:currentColor;stroke-dasharray:none;stroke-opacity:1" />
<path d="M 8.024 18.069 L 8.024 18.078 L 79.287 18.076 L 79.280 18.072 L 8.024 18.069 Z" id="poly30" style="fill:none;fill-opacity:0;stroke:currentColor;stroke-dasharray:none;stroke-opacity:1" />
<path d="M 8.024 22.685 L 8.024 22.694 L 79.287 22.692 L 79.280 22.688 L 8.024 22.685 Z" id="poly31" style="fill:none;fill-opacity:0;stroke:currentColor;stroke-dasharray:none;stroke-opacity:1" />
<path d="M 74.641 0.075 L 74.647 0.088 L 77.146 0.088 L 77.149 0.036 L 74.645 0.036 L 74.641 0.075 Z M 75.155 0.075 L 75.155 0.049 L 76.637 0.049 L 76.637 0.075 L 75.155 0.075 Z" id="poly32" style="fill:none;fill-opacity:0;stroke:currentColor;stroke-dasharray:none;stroke-opacity:1" />
<path d="M 74.641 78.998 L 74.647 79.011 L 77.146 79.011 L 77.149 78.960 L 74.645 78.960 L 74.641 78.998 Z M 75.155 78.998 L 75.155 78.973 L 76.637 78.973 L 76.637 78.998 L 75.155 78.998 Z" id="poly33" style="fill:none;fill-opacity:0;stroke:currentColor;stroke-dasharray:none;stroke-opacity:1" />
<path d="M 74.292 79.760 L 74.286 79.851 L 75.720 79.851 L 75.724 79.760 L 74.292 79.760 Z" id="poly34" style="fill:none;fill-opacity:0;stroke:currentColor;stroke-dasharray:none;stroke-opacity:1" />
<path d="M 74.292 0.836 L 74.286 0.927 L 75.720 0.927 L 75.724 0.836 L 74.292 0.836 Z" id="poly35" style="fill:none;fill-opacity:0;stroke:currentColor;stroke-dasharray:none;stroke-opacity:1" />
<path d="M 70.729 79.669 L 70.723 79.851 L 72.156 79.851 L 72.162 79.669 L 70.729 79.669 Z" id="poly36" style="fill:none;fill-opacity:0;stroke:currentColor;stroke-dasharray:none;stroke-opacity:1" />
<path d="M 70.729 0.745 L 70.723 0.927 L 72.156 0.927 L 72.162 0.745 L 70.729 0.745 Z" id="poly37" style="fill:none;fill-opacity:0;stroke:currentColor;stroke-dasharray:none;stroke-opacity:1" />
<path d="M 67.523 79.763 L 67.519 79.789 L 69.511 79.789 L 69.513 79.802 L 70.023 79.802 L 70.021 79.763 L 69.513 79.763 L 69.511 79.776 L 68.029 79.776 L 68.027 79.763 L 67.523 79.763 Z" id="poly38" style="fill:none;fill-opacity:0;stroke:currentColor;stroke-dasharray:none;stroke-opacity:1" />
<path d="M 67.523 0.840 L 67.519 0.865 L 69.511 0.865 L 69.513 0.878 L 70.023 0.878 L 70.021 0.840 L 69.513 0.840 L 69.511 0.852 L 68.029 0.852 L 68.027 0.840 L 67.523 0.840 Z" id="poly39" style="fill:none;fill-opacity:0;stroke:currentColor;stroke-dasharray:none;stroke-opacity:1" />
<path d="M 67.516 79.878 L 67.522 79.891 L 70.020 79.891 L 70.023 79.840 L 67.520 79.840 L 67.516 79.878 Z M 68.029 79.878 L 68.029 79.853 L 69.511 79.853 L 69.511 79.878 L 68.029 79.878 Z" id="poly40" style="fill:none;fill-opacity:0;stroke:currentColor;stroke-dasharray:none;stroke-opacity:1" />
<path d="M 67.516 0.954 L 67.522 0.967 L 70.020 0.967 L 70.023 0.916 L 67.520 0.916 L 67.516 0.954 Z M 68.029 0.954 L 68.029 0.929 L 69.511 0.929 L 69.511 0.954 L 68.029 0.954 Z" id="poly41" style="fill:none;fill-opacity:0;stroke:currentColor;stroke-dasharray:none;stroke-opacity:1" />
<path d="M 68.521 79.687 L 68.514 79.725 L 69.021 79.726 L 69.026 79.687 L 68.521 79.687 Z" id="poly42" style="fill:none;fill-opacity:0;stroke:currentColor;stroke-dasharray:none;stroke-opacity:1" />
<path d="M 68.521 0.763 L 68.514 0.802 L 69.021 0.802 L 69.026 0.763 L 68.521 0.763 Z" id="poly43" style="fill:none;fill-opacity:0;stroke:currentColor;stroke-dasharray:none;stroke-opacity:1" />
<path d="M 67.167 79.578 L 67.160 79.669 L 68.595 79.669 L 68.598 79.578 L 67.167 79.578 Z" id="poly44" style="fill:none;fill-opacity:0;stroke:currentColor;stroke-dasharray:none;stroke-opacity:1" />
<path d="M 67.167 0.654 L 67.160 0.745 L 68.595 0.745 L 68.598 0.654 L 67.167 0.654 Z" id="poly45" style="fill:none;fill-opacity:0;stroke:currentColor;stroke-dasharray:none;stroke-opacity:1" />
<path d="M 63.604 79.487 L 63.597 79.669 L 65.030 79.669 L 65.036 79.487 L 63.604 79.487 Z" id="poly46" style="fill:none;fill-opacity:0;stroke:currentColor;stroke-dasharray:none;stroke-opacity:1" />
<path d="M 63.604 0.563 L 63.597 0.745 L 65.030 0.745 L 65.036 0.564 L 63.604 0.563 Z" id="poly47" style="fill:none;fill-opacity:0;stroke:currentColor;stroke-dasharray:none;stroke-opacity:1" />
<path d="M 60.397 79.569 L 60.392 79.633 L 61.898 79.633 L 61.901 79.595 L 62.385 79.595 L 62.386 79.633 L 62.896 79.633 L 62.896 79.569 L 61.390 79.569 L 61.388 79.607 L 60.903 79.607 L 60.903 79.569 L 60.397 79.569 Z" id="poly48" style="fill:none;fill-opacity:0;stroke:currentColor;stroke-dasharray:none;stroke-opacity:1" />
<path d="M 60.397 0.645 L 60.392 0.709 L 61.898 0.709 L 61.901 0.671 L 62.385 0.671 L 62.386 0.709 L 62.896 0.709 L 62.896 0.645 L 61.390 0.645 L 61.388 0.683 L 60.903 0.683 L 60.903 0.645 L 60.397 0.645 Z" id="poly49" style="fill:none;fill-opacity:0;stroke:currentColor;stroke-dasharray:none;stroke-opacity:1" />
<path d="M 60.390 79.696 L 60.396 79.709 L 62.895 79.709 L 62.898 79.658 L 60.394 79.658 L 60.390 79.696 Z M 60.903 79.696 L 60.903 79.671 L 62.385 79.671 L 62.385 79.696 L 60.903 79.696 Z" id="poly50" style="fill:none;fill-opacity:0;stroke:currentColor;stroke-dasharray:none;stroke-opacity:1" />
<path d="M 60.390 0.773 L 60.396 0.785 L 62.895 0.785 L 62.898 0.734 L 60.394 0.734 L 60.390 0.773 Z M 60.903 0.772 L 60.903 0.747 L 62.385 0.747 L 62.385 0.772 L 60.903 0.772 Z" id="poly51" style="fill:none;fill-opacity:0;stroke:currentColor;stroke-dasharray:none;stroke-opacity:1" />
<path d="M 61.395 79.505 L 61.388 79.544 L 61.896 79.544 L 61.900 79.505 L 61.395 79.505 Z" id="poly52" style="fill:none;fill-opacity:0;stroke:currentColor;stroke-dasharray:none;stroke-opacity:1" />
<path d="M 61.395 0.582 L 61.388 0.620 L 61.896 0.620 L 61.900 0.582 L 61.395 0.582 Z" id="poly53" style="fill:none;fill-opacity:0;stroke:currentColor;stroke-dasharray:none;stroke-opacity:1" />
<path d="M 60.041 79.396 L 60.034 79.487 L 61.469 79.487 L 61.473 79.396 L 60.041 79.396 Z" id="poly54" style="fill:none;fill-opacity:0;stroke:currentColor;stroke-dasharray:none;stroke-opacity:1" />
<path d="M 60.041 0.473 L 60.034 0.564 L 61.469 0.564 L 61.473 0.473 L 60.041 0.473 Z" id="poly55" style="fill:none;fill-opacity:0;stroke:currentColor;stroke-dasharray:none;stroke-opacity:1" />
<path d="M 56.478 79.305 L 56.471 79.487 L 57.905 79.488 L 57.910 79.306 L 56.478 79.305 Z" id="poly56" style="fill:none;fill-opacity:0;stroke:currentColor;stroke-dasharray:none;stroke-opacity:1" />
<path d="M 56.478 0.382 L 56.471 0.564 L 57.905 0.564 L 57.910 0.382 L 56.478 0.382 Z" id="poly57" style="fill:none;fill-opacity:0;stroke:currentColor;stroke-dasharray:none;stroke-opacity:1" />
<path d="M 53.272 79.387 L 53.267 79.451 L 55.771 79.451 L 55.771 79.387 L 55.261 79.387 L 55.260 79.425 L 54.775 79.425 L 54.775 79.387 L 54.265 79.387 L 54.262 79.425 L 53.778 79.425 L 53.777 79.387 L 53.272 79.387 Z" id="poly58" style="fill:none;fill-opacity:0;stroke:currentColor;stroke-dasharray:none;stroke-opacity:1" />
<path d="M 53.272 0.463 L 53.267 0.527 L 55.771 0.527 L 55.771 0.463 L 55.261 0.464 L 55.260 0.502 L 54.775 0.502 L 54.775 0.464 L 54.265 0.463 L 54.262 0.502 L 53.778 0.502 L 53.777 0.464 L 53.272 0.463 Z" id="poly59" style="fill:none;fill-opacity:0;stroke:currentColor;stroke-dasharray:none;stroke-opacity:1" />
<path d="M 53.264 79.515 L 53.270 79.527 L 55.769 79.527 L 55.772 79.476 L 53.268 79.476 L 53.264 79.515 Z M 53.778 79.514 L 53.778 79.489 L 55.260 79.489 L 55.260 79.514 L 53.778 79.514 Z" id="poly60" style="fill:none;fill-opacity:0;stroke:currentColor;stroke-dasharray:none;stroke-opacity:1" />
<path d="M 53.264 0.591 L 53.270 0.604 L 55.769 0.604 L 55.772 0.553 L 53.268 0.552 L 53.264 0.591 Z M 53.778 0.591 L 53.778 0.566 L 55.260 0.566 L 55.260 0.591 L 53.778 0.591 Z" id="poly61" style="fill:none;fill-opacity:0;stroke:currentColor;stroke-dasharray:none;stroke-opacity:1" />
<path d="M 54.269 79.324 L 54.262 79.362 L 54.770 79.362 L 54.775 79.324 L 54.269 79.324 Z" id="poly62" style="fill:none;fill-opacity:0;stroke:currentColor;stroke-dasharray:none;stroke-opacity:1" />
<path d="M 54.269 0.400 L 54.262 0.438 L 54.770 0.438 L 54.775 0.400 L 54.269 0.400 Z" id="poly63" style="fill:none;fill-opacity:0;stroke:currentColor;stroke-dasharray:none;stroke-opacity:1" />
<path d="M 52.915 79.215 L 52.909 79.306 L 54.343 79.306 L 54.347 79.215 L 52.915 79.215 Z" id="poly64" style="fill:none;fill-opacity:0;stroke:currentColor;stroke-dasharray:none;stroke-opacity:1" />
<path d="M 52.915 0.291 L 52.909 0.382 L 54.343 0.382 L 54.347 0.291 L 52.915 0.291 Z" id="poly65" style="fill:none;fill-opacity:0;stroke:currentColor;stroke-dasharray:none;stroke-opacity:1" />
<path d="M 49.352 79.124 L 49.345 79.306 L 50.779 79.306 L 50.785 79.124 L 49.352 79.124 Z" id="poly66" style="fill:none;fill-opacity:0;stroke:currentColor;stroke-dasharray:none;stroke-opacity:1" />
<path d="M 49.352 0.200 L 49.345 0.382 L 50.779 0.382 L 50.785 0.200 L 49.352 0.200 Z" id="poly67" style="fill:none;fill-opacity:0;stroke:currentColor;stroke-dasharray:none;stroke-opacity:1" />
<path d="M 46.139 0.409 L 46.145 0.422 L 48.643 0.422 L 48.646 0.371 L 46.143 0.371 L 46.139 0.409 Z M 46.652 0.409 L 46.652 0.384 L 48.134 0.384 L 48.134 0.409 L 46.652 0.409 Z" id="poly68" style="fill:none;fill-opacity:0;stroke:currentColor;stroke-dasharray:none;stroke-opacity:1" />
<path d="M 46.146 79.205 L 46.143 79.219 L 47.136 79.219 L 47.136 79.244 L 46.141 79.244 L 46.141 79.269 L 48.645 79.269 L 48.645 79.244 L 47.649 79.244 L 47.647 79.206 L 46.146 79.205 Z" id="poly69" style="fill:none;fill-opacity:0;stroke:currentColor;stroke-dasharray:none;stroke-opacity:1" />
<path d="M 46.146 0.282 L 46.143 0.295 L 47.136 0.295 L 47.136 0.320 L 46.141 0.320 L 46.141 0.346 L 48.645 0.346 L 48.645 0.320 L 47.649 0.320 L 47.647 0.282 L 46.146 0.282 Z" id="poly70" style="fill:none;fill-opacity:0;stroke:currentColor;stroke-dasharray:none;stroke-opacity:1" />
<path d="M 46.139 79.333 L 46.145 79.346 L 48.643 79.346 L 48.646 79.295 L 46.143 79.295 L 46.139 79.333 Z M 46.652 79.333 L 46.652 79.308 L 48.134 79.308 L 48.134 79.333 L 46.652 79.333 Z" id="poly71" style="fill:none;fill-opacity:0;stroke:currentColor;stroke-dasharray:none;stroke-opacity:1" />
<path d="M 47.143 0.218 L 47.137 0.256 L 47.644 0.257 L 47.649 0.218 L 47.143 0.218 Z" id="poly72" style="fill:none;fill-opacity:0;stroke:currentColor;stroke-dasharray:none;stroke-opacity:1" />
<path d="M 47.143 79.142 L 47.137 79.180 L 47.644 79.180 L 47.649 79.142 L 47.143 79.142 Z" id="poly73" style="fill:none;fill-opacity:0;stroke:currentColor;stroke-dasharray:none;stroke-opacity:1" />
<path d="M 45.790 79.033 L 45.783 79.124 L 47.217 79.124 L 47.221 79.033 L 45.790 79.033 Z" id="poly74" style="fill:none;fill-opacity:0;stroke:currentColor;stroke-dasharray:none;stroke-opacity:1" />
<path d="M 45.790 0.109 L 45.783 0.200 L 47.217 0.200 L 47.221 0.109 L 45.790 0.109 Z" id="poly75" style="fill:none;fill-opacity:0;stroke:currentColor;stroke-dasharray:none;stroke-opacity:1" />
<path d="M 42.227 78.942 L 42.220 79.942 L 43.652 79.942 L 43.659 78.942 L 42.227 78.942 Z" id="poly76" style="fill:none;fill-opacity:0;stroke:currentColor;stroke-dasharray:none;stroke-opacity:1" />
<path d="M 42.227 0.018 L 42.220 1.018 L 43.652 1.018 L 43.659 0.018 L 42.227 0.018 Z" id="poly77" style="fill:none;fill-opacity:0;stroke:currentColor;stroke-dasharray:none;stroke-opacity:1" />
<path d="M 39.020 79.024 L 39.015 79.088 L 39.525 79.088 L 39.526 79.050 L 40.011 79.050 L 40.013 79.088 L 41.519 79.088 L 41.519 79.024 L 41.009 79.024 L 41.008 79.062 L 40.524 79.062 L 40.522 79.024 L 39.020 79.024 Z" id="poly78" style="fill:none;fill-opacity:0;stroke:currentColor;stroke-dasharray:none;stroke-opacity:1" />
<path d="M 39.020 0.100 L 39.015 0.164 L 39.525 0.164 L 39.526 0.126 L 40.011 0.126 L 40.013 0.164 L 41.519 0.164 L 41.519 0.100 L 41.009 0.100 L 41.008 0.138 L 40.524 0.138 L 40.522 0.100 L 39.020 0.100 Z" id="poly79" style="fill:none;fill-opacity:0;stroke:currentColor;stroke-dasharray:none;stroke-opacity:1" />
<path d="M 39.013 79.151 L 39.019 79.164 L 41.518 79.164 L 41.520 79.113 L 39.017 79.113 L 39.013 79.151 Z M 39.526 79.151 L 39.526 79.126 L 41.008 79.126 L 41.008 79.151 L 39.526 79.151 Z" id="poly80" style="fill:none;fill-opacity:0;stroke:currentColor;stroke-dasharray:none;stroke-opacity:1" />
<path d="M 39.013 0.227 L 39.019 0.240 L 41.518 0.240 L 41.520 0.189 L 39.017 0.189 L 39.013 0.227 Z M 39.526 0.227 L 39.526 0.202 L 41.008 0.202 L 41.008 0.227 L 39.526 0.227 Z" id="poly81" style="fill:none;fill-opacity:0;stroke:currentColor;stroke-dasharray:none;stroke-opacity:1" />
<path d="M 40.018 0.036 L 40.011 0.075 L 40.519 0.075 L 40.523 0.036 L 40.018 0.036 Z" id="poly82" style="fill:none;fill-opacity:0;stroke:currentColor;stroke-dasharray:none;stroke-opacity:1" />
<path d="M 40.018 78.960 L 40.011 78.999 L 40.519 78.999 L 40.523 78.960 L 40.018 78.960 Z" id="poly83" style="fill:none;fill-opacity:0;stroke:currentColor;stroke-dasharray:none;stroke-opacity:1" />
<path d="M 38.664 0.927 L 38.657 1.018 L 40.092 1.018 L 40.096 0.927 L 38.664 0.927 Z" id="poly84" style="fill:none;fill-opacity:0;stroke:currentColor;stroke-dasharray:none;stroke-opacity:1" />
<path d="M 38.664 79.851 L 38.657 79.942 L 40.092 79.942 L 40.096 79.851 L 38.664 79.851 Z" id="poly85" style="fill:none;fill-opacity:0;stroke:currentColor;stroke-dasharray:none;stroke-opacity:1" />
<path d="M 35.101 79.760 L 35.094 79.942 L 36.528 79.942 L 36.533 79.760 L 35.101 79.760 Z" id="poly86" style="fill:none;fill-opacity:0;stroke:currentColor;stroke-dasharray:none;stroke-opacity:1" />
<path d="M 35.101 0.836 L 35.094 1.018 L 36.528 1.018 L 36.533 0.836 L 35.101 0.836 Z" id="poly87" style="fill:none;fill-opacity:0;stroke:currentColor;stroke-dasharray:none;stroke-opacity:1" />
<path d="M 31.895 79.842 L 31.890 79.905 L 32.400 79.905 L 32.400 79.855 L 32.885 79.855 L 32.887 79.905 L 34.394 79.905 L 34.394 79.842 L 31.895 79.842 Z M 33.398 79.880 L 33.398 79.867 L 33.883 79.867 L 33.883 79.880 L 33.398 79.880 Z" id="poly88" style="fill:none;fill-opacity:0;stroke:currentColor;stroke-dasharray:none;stroke-opacity:1" />
<path d="M 31.895 0.918 L 31.890 0.982 L 32.400 0.982 L 32.400 0.931 L 32.885 0.931 L 32.887 0.982 L 34.394 0.982 L 34.394 0.918 L 31.895 0.918 Z M 33.398 0.956 L 33.398 0.944 L 33.883 0.944 L 33.883 0.956 L 33.398 0.956 Z" id="poly89" style="fill:none;fill-opacity:0;stroke:currentColor;stroke-dasharray:none;stroke-opacity:1" />
<path d="M 31.887 79.969 L 31.893 79.982 L 34.392 79.982 L 34.395 79.931 L 31.891 79.931 L 31.887 79.969 Z M 32.400 79.969 L 32.400 79.944 L 33.883 79.944 L 33.883 79.969 L 32.400 79.969 Z" id="poly90" style="fill:none;fill-opacity:0;stroke:currentColor;stroke-dasharray:none;stroke-opacity:1" />
<path d="M 31.887 1.045 L 31.893 1.058 L 34.392 1.058 L 34.395 1.007 L 31.891 1.007 L 31.887 1.045 Z M 32.400 1.045 L 32.400 1.020 L 33.883 1.020 L 33.883 1.045 L 32.400 1.045 Z" id="poly91" style="fill:none;fill-opacity:0;stroke:currentColor;stroke-dasharray:none;stroke-opacity:1" />
<path d="M 32.892 79.778 L 32.885 79.816 L 33.393 79.816 L 33.398 79.778 L 32.892 79.778 Z" id="poly92" style="fill:none;fill-opacity:0;stroke:currentColor;stroke-dasharray:none;stroke-opacity:1" />
<path d="M 32.892 0.854 L 32.885 0.893 L 33.393 0.893 L 33.398 0.854 L 32.892 0.854 Z" id="poly93" style="fill:none;fill-opacity:0;stroke:currentColor;stroke-dasharray:none;stroke-opacity:1" />
<path d="M 31.538 79.669 L 31.532 79.760 L 32.966 79.760 L 32.970 79.669 L 31.538 79.669 Z" id="poly94" style="fill:none;fill-opacity:0;stroke:currentColor;stroke-dasharray:none;stroke-opacity:1" />
<path d="M 31.538 0.745 L 31.532 0.836 L 32.966 0.836 L 32.970 0.745 L 31.538 0.745 Z" id="poly95" style="fill:none;fill-opacity:0;stroke:currentColor;stroke-dasharray:none;stroke-opacity:1" />
<path d="M 27.975 0.654 L 27.968 0.836 L 29.402 0.836 L 29.408 0.654 L 27.975 0.654 Z" id="poly96" style="fill:none;fill-opacity:0;stroke:currentColor;stroke-dasharray:none;stroke-opacity:1" />
<path d="M 27.975 79.578 L 27.968 79.760 L 29.402 79.760 L 29.408 79.578 L 27.975 79.578 Z" id="poly97" style="fill:none;fill-opacity:0;stroke:currentColor;stroke-dasharray:none;stroke-opacity:1" />
<path d="M 24.769 79.660 L 24.764 79.724 L 27.268 79.724 L 27.268 79.698 L 25.275 79.698 L 25.274 79.660 L 24.769 79.660 Z" id="poly98" style="fill:none;fill-opacity:0;stroke:currentColor;stroke-dasharray:none;stroke-opacity:1" />
<path d="M 24.769 0.736 L 24.764 0.800 L 27.268 0.800 L 27.268 0.774 L 25.275 0.774 L 25.274 0.736 L 24.769 0.736 Z" id="poly99" style="fill:none;fill-opacity:0;stroke:currentColor;stroke-dasharray:none;stroke-opacity:1" />
<path d="M 24.762 79.787 L 24.767 79.800 L 27.266 79.800 L 27.269 79.749 L 24.766 79.749 L 24.762 79.787 Z M 25.275 79.787 L 25.275 79.762 L 26.757 79.762 L 26.757 79.787 L 25.275 79.787 Z" id="poly100" style="fill:none;fill-opacity:0;stroke:currentColor;stroke-dasharray:none;stroke-opacity:1" />
<path d="M 24.762 0.863 L 24.767 0.876 L 27.266 0.876 L 27.269 0.825 L 24.766 0.825 L 24.762 0.863 Z M 25.275 0.863 L 25.275 0.838 L 26.757 0.838 L 26.757 0.863 L 25.275 0.863 Z" id="poly101" style="fill:none;fill-opacity:0;stroke:currentColor;stroke-dasharray:none;stroke-opacity:1" />
<path d="M 25.766 79.596 L 25.760 79.635 L 26.267 79.635 L 26.272 79.596 L 25.766 79.596 Z" id="poly102" style="fill:none;fill-opacity:0;stroke:currentColor;stroke-dasharray:none;stroke-opacity:1" />
<path d="M 25.766 0.672 L 25.760 0.711 L 26.267 0.711 L 26.272 0.673 L 25.766 0.672 Z" id="poly103" style="fill:none;fill-opacity:0;stroke:currentColor;stroke-dasharray:none;stroke-opacity:1" />
<path d="M 24.413 79.487 L 24.406 79.578 L 25.840 79.578 L 25.844 79.487 L 24.413 79.487 Z" id="poly104" style="fill:none;fill-opacity:0;stroke:currentColor;stroke-dasharray:none;stroke-opacity:1" />
<path d="M 24.413 0.563 L 24.406 0.654 L 25.840 0.655 L 25.844 0.563 L 24.413 0.563 Z" id="poly105" style="fill:none;fill-opacity:0;stroke:currentColor;stroke-dasharray:none;stroke-opacity:1" />
<path d="M 20.850 79.396 L 20.843 79.578 L 22.276 79.578 L 22.282 79.396 L 20.850 79.396 Z" id="poly106" style="fill:none;fill-opacity:0;stroke:currentColor;stroke-dasharray:none;stroke-opacity:1" />
<path d="M 20.850 0.473 L 20.843 0.654 L 22.276 0.655 L 22.282 0.473 L 20.850 0.473 Z" id="poly107" style="fill:none;fill-opacity:0;stroke:currentColor;stroke-dasharray:none;stroke-opacity:1" />
<path d="M 17.636 0.593 L 17.640 0.618 L 20.141 0.618 L 20.143 0.554 L 17.640 0.554 L 17.636 0.593 Z M 18.149 0.592 L 18.149 0.580 L 18.634 0.580 L 18.634 0.592 L 18.149 0.592 Z M 19.147 0.592 L 19.147 0.580 L 19.631 0.580 L 19.631 0.592 L 19.147 0.592 Z" id="poly108" style="fill:none;fill-opacity:0;stroke:currentColor;stroke-dasharray:none;stroke-opacity:1" />
<path d="M 17.636 79.605 L 17.642 79.618 L 20.141 79.618 L 20.143 79.567 L 17.640 79.567 L 17.636 79.605 Z M 18.149 79.605 L 18.149 79.580 L 19.631 79.580 L 19.631 79.605 L 18.149 79.605 Z" id="poly109" style="fill:none;fill-opacity:0;stroke:currentColor;stroke-dasharray:none;stroke-opacity:1" />
<path d="M 17.636 79.516 L 17.640 79.542 L 20.141 79.542 L 20.143 79.478 L 17.640 79.478 L 17.636 79.516 Z M 18.149 79.516 L 18.149 79.504 L 18.634 79.504 L 18.634 79.516 L 18.149 79.516 Z M 19.147 79.516 L 19.147 79.504 L 19.631 79.504 L 19.631 79.516 L 19.147 79.516 Z" id="poly110" style="fill:none;fill-opacity:0;stroke:currentColor;stroke-dasharray:none;stroke-opacity:1" />
<path d="M 17.636 0.682 L 17.642 0.695 L 20.141 0.695 L 20.143 0.643 L 17.640 0.643 L 17.636 0.682 Z M 18.149 0.682 L 18.149 0.656 L 19.631 0.656 L 19.631 0.682 L 18.149 0.682 Z" id="poly111" style="fill:none;fill-opacity:0;stroke:currentColor;stroke-dasharray:none;stroke-opacity:1" />
<path d="M 18.641 0.491 L 18.634 0.529 L 19.142 0.529 L 19.146 0.491 L 18.641 0.491 Z" id="poly112" style="fill:none;fill-opacity:0;stroke:currentColor;stroke-dasharray:none;stroke-opacity:1" />
<path d="M 18.641 79.414 L 18.634 79.453 L 19.142 79.453 L 19.146 79.415 L 18.641 79.414 Z" id="poly113" style="fill:none;fill-opacity:0;stroke:currentColor;stroke-dasharray:none;stroke-opacity:1" />
<path d="M 17.287 79.305 L 17.280 79.397 L 18.715 79.397 L 18.719 79.306 L 17.287 79.305 Z" id="poly114" style="fill:none;fill-opacity:0;stroke:currentColor;stroke-dasharray:none;stroke-opacity:1" />
<path d="M 17.287 0.382 L 17.280 0.473 L 18.715 0.473 L 18.719 0.382 L 17.287 0.382 Z" id="poly115" style="fill:none;fill-opacity:0;stroke:currentColor;stroke-dasharray:none;stroke-opacity:1" />
<path d="M 13.724 79.215 L 13.717 79.396 L 15.151 79.397 L 15.156 79.215 L 13.724 79.215 Z" id="poly116" style="fill:none;fill-opacity:0;stroke:currentColor;stroke-dasharray:none;stroke-opacity:1" />
<path d="M 13.724 0.291 L 13.717 0.473 L 15.151 0.473 L 15.156 0.291 L 13.724 0.291 Z" id="poly117" style="fill:none;fill-opacity:0;stroke:currentColor;stroke-dasharray:none;stroke-opacity:1" />
<path d="M 10.510 79.424 L 10.516 79.437 L 13.015 79.437 L 13.018 79.385 L 10.514 79.385 L 10.510 79.424 Z M 11.023 79.424 L 11.023 79.398 L 12.506 79.398 L 12.506 79.424 L 11.023 79.424 Z" id="poly118" style="fill:none;fill-opacity:0;stroke:currentColor;stroke-dasharray:none;stroke-opacity:1" />
<path d="M 10.510 79.335 L 10.515 79.360 L 13.018 79.360 L 13.017 79.335 L 12.021 79.334 L 12.017 79.296 L 10.512 79.296 L 10.510 79.335 Z M 11.023 79.334 L 11.023 79.322 L 11.508 79.322 L 11.508 79.334 L 11.023 79.334 Z" id="poly119" style="fill:none;fill-opacity:0;stroke:currentColor;stroke-dasharray:none;stroke-opacity:1" />
<path d="M 10.510 0.500 L 10.516 0.513 L 13.015 0.513 L 13.018 0.462 L 10.514 0.462 L 10.510 0.500 Z M 11.023 0.500 L 11.023 0.475 L 12.506 0.475 L 12.506 0.500 L 11.023 0.500 Z" id="poly120" style="fill:none;fill-opacity:0;stroke:currentColor;stroke-dasharray:none;stroke-opacity:1" />
<path d="M 10.510 0.411 L 10.515 0.437 L 13.018 0.436 L 13.017 0.411 L 12.021 0.411 L 12.017 0.373 L 10.512 0.373 L 10.510 0.411 Z M 11.023 0.411 L 11.023 0.398 L 11.508 0.398 L 11.508 0.411 L 11.023 0.411 Z" id="poly121" style="fill:none;fill-opacity:0;stroke:currentColor;stroke-dasharray:none;stroke-opacity:1" />
<path d="M 11.515 79.233 L 11.508 79.271 L 12.016 79.271 L 12.021 79.233 L 11.515 79.233 Z" id="poly122" style="fill:none;fill-opacity:0;stroke:currentColor;stroke-dasharray:none;stroke-opacity:1" />
<path d="M 11.515 0.309 L 11.508 0.347 L 12.016 0.347 L 12.021 0.309 L 11.515 0.309 Z" id="poly123" style="fill:none;fill-opacity:0;stroke:currentColor;stroke-dasharray:none;stroke-opacity:1" />
<path d="M 10.161 79.124 L 10.155 79.215 L 11.589 79.215 L 11.593 79.124 L 10.161 79.124 Z" id="poly124" style="fill:none;fill-opacity:0;stroke:currentColor;stroke-dasharray:none;stroke-opacity:1" />
<path d="M 10.161 0.200 L 10.155 0.291 L 11.589 0.291 L 11.593 0.200 L 10.161 0.200 Z" id="poly125" style="fill:none;fill-opacity:0;stroke:currentColor;stroke-dasharray:none;stroke-opacity:1" />
<path d="M 6.598 0.109 L 6.591 0.291 L 8.025 0.291 L 8.031 0.109 L 6.598 0.109 Z" id="poly126" style="fill:none;fill-opacity:0;stroke:currentColor;stroke-dasharray:none;stroke-opacity:1" />
<path d="M 6.598 79.033 L 6.591 79.215 L 8.025 79.215 L 8.031 79.033 L 6.598 79.033 Z" id="poly127" style="fill:none;fill-opacity:0;stroke:currentColor;stroke-dasharray:none;stroke-opacity:1" />
<path d="M 3.385 0.395 L 3.390 0.407 L 5.889 0.407 L 5.892 0.356 L 3.388 0.356 L 3.385 0.395 Z M 3.898 0.394 L 3.898 0.369 L 5.380 0.369 L 5.380 0.394 L 3.898 0.394 Z" id="poly128" style="fill:none;fill-opacity:0;stroke:currentColor;stroke-dasharray:none;stroke-opacity:1" />
<path d="M 3.385 79.242 L 3.390 79.255 L 5.889 79.255 L 5.892 79.204 L 3.388 79.204 L 3.385 79.242 Z M 3.898 79.242 L 3.898 79.217 L 5.380 79.217 L 5.380 79.242 L 3.898 79.242 Z" id="poly129" style="fill:none;fill-opacity:0;stroke:currentColor;stroke-dasharray:none;stroke-opacity:1" />
<path d="M 3.385 79.318 L 3.390 79.331 L 5.889 79.331 L 5.892 79.280 L 3.388 79.280 L 3.385 79.318 Z M 3.898 79.318 L 3.898 79.293 L 5.380 79.293 L 5.380 79.318 L 3.898 79.318 Z" id="poly130" style="fill:none;fill-opacity:0;stroke:currentColor;stroke-dasharray:none;stroke-opacity:1" />
<path d="M 3.392 0.204 L 3.388 0.229 L 5.380 0.229 L 5.382 0.242 L 5.892 0.242 L 5.890 0.204 L 5.382 0.204 L 5.380 0.216 L 3.898 0.216 L 3.896 0.204 L 3.392 0.204 Z" id="poly131" style="fill:none;fill-opacity:0;stroke:currentColor;stroke-dasharray:none;stroke-opacity:1" />
<path d="M 3.392 79.127 L 3.388 79.153 L 5.380 79.153 L 5.382 79.166 L 5.892 79.166 L 5.890 79.127 L 5.382 79.127 L 5.380 79.140 L 3.898 79.140 L 3.896 79.127 L 3.392 79.127 Z" id="poly132" style="fill:none;fill-opacity:0;stroke:currentColor;stroke-dasharray:none;stroke-opacity:1" />
<path d="M 3.385 0.318 L 3.390 0.331 L 5.889 0.331 L 5.892 0.280 L 3.388 0.280 L 3.385 0.318 Z M 3.898 0.318 L 3.898 0.293 L 5.380 0.293 L 5.380 0.318 L 3.898 0.318 Z" id="poly133" style="fill:none;fill-opacity:0;stroke:currentColor;stroke-dasharray:none;stroke-opacity:1" />
<path d="M 4.389 0.127 L 4.383 0.166 L 4.890 0.166 L 4.895 0.127 L 4.389 0.127 Z" id="poly134" style="fill:none;fill-opacity:0;stroke:currentColor;stroke-dasharray:none;stroke-opacity:1" />
<path d="M 4.389 79.051 L 4.383 79.089 L 4.890 79.090 L 4.895 79.051 L 4.389 79.051 Z" id="poly135" style="fill:none;fill-opacity:0;stroke:currentColor;stroke-dasharray:none;stroke-opacity:1" />

  </g>
</svg>