<?xml version="1.0" encoding="UTF-8" standalone="no"?>
<svg
   width="80"
   height="80"
   viewBox="0 0 80 80"
   version="1.1"
   id="svg1"
   xmlns="http://www.w3.org/2000/svg"
   xmlns:svg="http://www.w3.org/2000/svg">
  <defs
     id="defs1" />
  <g
     id="icon"
     transform="translate(0,80) scale(1,-1)">
    <rect
       style="fill:none;fill-opacity:0;stroke:none;stroke-opacity:0.165761"
       id="frame"
       width="79"
       height="79"
       x="0.5"
       y="0.5" />
       <path d="M 12.453 34.272 L 16.145 40.767 L 23.553 45.155 L 28.399 45.862 L 50.545 45.873 L 55.291 46.910 L 55.019 53.985 L 52.107 56.760 L 28.678 57.164 L 25.664 58.298 L 23.672 61.051 L 23.410 63.902 L 24.433 66.497 L 26.545 68.337 L 53.485 68.541 L 59.270 66.207 L 64.262 61.254 L 66.434 54.913 L 67.877 16.274 L 67.098 13.628 L 65.109 11.826 L 62.271 11.124 L 59.317 11.918 L 57.318 13.933 L 56.542 16.656 L 47.389 11.124 L 27.550 11.157 L 21.298 12.624 L 16.122 16.185 L 13.185 20.408 L 12.160 24.567 L 12.453 34.272 Z M 28.554 34.138 L 25.211 33.211 L 23.517 31.080 L 23.762 25.265 L 27.030 23.066 L 44.282 22.848 L 56.134 28.020 L 55.489 31.950 L 52.283 33.952 L 28.554 34.138 Z" id="poly0" style="fill:none;fill-opacity:0;stroke:currentColor;stroke-dasharray:none;stroke-opacity:1" />

  </g>
</svg>